<svg width="512" height="512" viewBox="0 0 512 512" version="1.1" xmlns="http://www.w3.org/2000/svg">
  <style>
    path {
      fill: #000000; /* Default to black for light mode */
    }
    @media (prefers-color-scheme: dark) {
      path {
        fill: #FFFFFF; /* Change to white for dark mode */
      }
    }
  </style>
  <g transform="translate(50.000000,512.000000) scale(0.100000,-0.100000)" stroke="none">
    <path d="M2186 4576 c-97 -294 -176 -540 -176 -548 0 -7 28 -28 63 -47 158 -86 299 -216 402 -371 140 -209 199 -408 212 -712 l6 -148 542 -2 542 -3 -433 -310 c-238 -170 -433 -317 -433 -325 0 -8 73 -238 163 -510 90 -272 162 -496 161 -498 -2 -2 -106 71 -232 162 l-228 165 -13 -47 c-31 -114 -56 -183 -95 -262 -23 -47 -42 -88 -42 -92 0 -8 1397 -1019 1402 -1014 2 2 -138 439 -312 972 -254 779 -313 970 -303 980 7 6 373 271 813 589 440 317 809 586 820 596 19 19 -1 19 -1012 19 l-1032 0 -130 398 c-72 218 -213 653 -315 966 -102 312 -187 570 -189 573 -3 2 -84 -236 -181 -531z"/>
    <path d="M1049 3870 c-506 -49 -812 -261 -921 -637 -20 -69 -23 -100 -23 -268 1 -181 2 -194 29 -275 88 -263 199 -378 468 -486 48 -19 230 -71 403 -115 525 -132 691 -196 810 -313 72 -72 91 -121 82 -217 -19 -214 -211 -325 -562 -323 -307 1 -521 103 -610 289 -18 39 -39 98 -46 133 l-13 62 -308 0 c-169 0 -308 -3 -308 -8 0 -4 5 -46 11 -92 44 -357 220 -615 524 -767 81 -41 228 -87 350 -109 141 -27 586 -27 722 -1 478 91 738 314 829 712 13 58 18 120 18 230 1 -179 -14 245 -82 385 -38 78 -60 109 -127 175 -142 141 -248 185 -862 350 -466 126 -568 165 -650 244 -62 60 -77 95 -77 171 0 91 26 159 84 224 91 99 244 143 460 133 144 -7 228 -25 317 -69 111 -54 212 -184 254 -325 l12 -43 285 0 285 0 -6 78 c-11 146 -73 320 -163 457 -134 206 -363 340 -667 391 -109 18 -397 26 -518 14z"/>
  </g>
</svg>
